<?xml version="1.0" encoding="utf-8"?>
<!-- Generator: Adobe Illustrator 18.1.1, SVG Export Plug-In . SVG Version: 6.00 Build 0)  -->
<svg version="1.1" id="layout" xmlns="http://www.w3.org/2000/svg" xmlns:xlink="http://www.w3.org/1999/xlink" x="0px" y="0px"
	 viewBox="0 152.2 640 237.4" enable-background="new 0 152.2 640 237.4" xml:space="preserve">
<g>
	<path fill="#070707" d="M-536.5,615.8v-30.4c0-3.8-4.4-5.9-7.3-3.4l-36.9,30.4c-3.2,2.7-1.3,7.9,2.8,7.9h36.9
		C-538.5,620.3-536.5,618.3-536.5,615.8z"/>
	<path fill="#070707" d="M-636.2,529.3v86.5c0,2.5,2,4.5,4.5,4.5h28.3c1.1,0,2.1-0.4,2.8-1l62.4-51.8c1.1-0.8,1.7-2.1,1.7-3.5v-0.2
		c0-1.9-1.1-3.5-2.9-4.2l-90.8-34.5C-633.1,523.9-636.2,526.1-636.2,529.3z"/>
	<path fill="#070707" d="M-579.8,529L-601.9,404c-0.4-2.2-2.2-3.8-4.4-3.8h-25.4c-2.5,0-4.5,2-4.5,4.5v106.6c0,1.9,1.1,3.5,2.9,4.2
		l47.6,18.3C-582.5,535.2-579.2,532.4-579.8,529z"/>
	<path fill="#070707" d="M-594.1,405.7l12.8,71.9c0.6,3.5,4.7,4.9,7.3,2.6l35.9-30.4c1-0.8,1.6-2.1,1.6-3.4v-41.5
		c0-2.5-2-4.5-4.5-4.5h-48.7C-592.5,400.3-594.6,402.9-594.1,405.7z"/>
</g>
<path fill="#070707" d="M-529.7,404.8v30.4c0,3.8,4.4,5.9,7.3,3.5l36.9-30.4c3.2-2.7,1.3-8-2.9-8h-36.9
	C-527.7,400.3-529.7,402.4-529.7,404.8z"/>
<path fill="#070707" d="M-429.9,491.4v-86.6c0-2.5-2-4.5-4.5-4.5h-28.3c-1.1,0-2.1,0.4-2.8,1l-62.4,51.8c-1.1,0.8-1.7,2.1-1.7,3.4
	v0.2c0,1.9,1.1,3.5,2.9,4.2l90.8,34.5C-433.1,496.7-429.9,494.5-429.9,491.4z"/>
<path fill="#070707" d="M-486.4,491.7l22.2,124.9c0.4,2.2,2.2,3.8,4.4,3.8h25.4c2.5,0,4.5-2,4.5-4.5V509.2c0-1.9-1.1-3.5-2.8-4.2
	l-47.6-18.3C-483.7,485.4-487.1,488.2-486.4,491.7z"/>
<path fill="#070707" d="M-472.1,615l-12.8-71.9c-0.6-3.5-4.7-4.9-7.3-2.6l-35.9,30.4c-1,0.8-1.6,2.1-1.6,3.5v41.5
	c0,2.5,2,4.5,4.5,4.5h48.7C-473.7,620.3-471.6,617.8-472.1,615z"/>
<path fill="#070707" d="M-525.4,548.8l-35.6-11.7c-1.5-0.5-2.7-1.8-3-3.4l-7.7-36.7c-0.3-1.6,0.2-3.2,1.4-4.3l28-25
	c1.2-1,2.8-1.4,4.4-0.9l35.6,11.7c1.5,0.5,2.7,1.8,3,3.4l7.7,36.8c0.3,1.6-0.2,3.2-1.4,4.3l-28,25.1
	C-522.2,548.9-523.9,549.3-525.4,548.8z"/>
<path fill="#070707" d="M-306.2,263.2l-28-11.6c-3.5-1.4-7.1,1.8-6,5.5l13.9,45.7c1.2,4,6.8,4.4,8.5,0.5l14.2-34.1
	C-302.8,266.7-303.9,264.1-306.2,263.2z"/>
<path fill="#070707" d="M-418.1,331.6l80.5,31.7c2.3,0.9,5-0.2,5.9-2.6l10.4-26.4c0.4-1,0.5-2,0.1-3.1l-25.4-77.1
	c-0.4-1.3-1.3-2.3-2.6-2.8l-0.1-0.1c-1.7-0.7-3.8-0.2-5,1.1l-65.4,71.9C-421.9,326.8-421.1,330.4-418.1,331.6z"/>
<path fill="#070707" d="M-358.4,243.2l-123.5-29.3c-2.1-0.5-4.3,0.6-5.2,2.6l-10.1,23.3c-1,2.2,0.1,4.9,2.3,5.9l97.8,42.5
	c1.7,0.8,3.7,0.4,5-1l35.7-36.4C-353.8,248.2-355,244-358.4,243.2z"/>
<path fill="#070707" d="M-427.1,213.3l68.2,26.2c3.2,1.3,6.6-1.5,6.1-4.9l-7.5-46.5c-0.2-1.3-1-2.5-2.1-3.1l-35.5-21.5
	c-2.1-1.3-4.9-0.6-6.2,1.5l-25.1,41.7C-430.7,209.2-429.7,212.3-427.1,213.3z"/>
<path fill="#070707" d="M-327.2,145v30.4c0,3.8,4.4,5.9,7.3,3.4l36.9-30.4c3.2-2.7,1.3-7.9-2.9-7.9h-36.9
	C-325.2,140.5-327.2,142.5-327.2,145z"/>
<path fill="#070707" d="M-262.4,172.9l-72-47.9c-2.1-1.3-4.9-0.8-6.2,1.3l-15.8,23.6c-0.6,0.9-0.8,1.9-0.8,3l8.6,80.7
	c0.1,1.4,0.9,2.6,1.9,3.3l0.2,0.1c1.6,1.1,3.6,1,5.1-0.1l79.1-56.5C-259.7,178.5-259.8,174.7-262.4,172.9z"/>
<path fill="#070707" d="M-337.7,246.7l117.5,47.9c2,0.8,4.3,0.1,5.5-1.8l13.6-21.5c1.4-2.1,0.7-4.9-1.4-6.2l-90.2-56.8
	c-1.6-1-3.6-0.9-5.1,0.2l-40.9,30.5C-341.5,241-340.9,245.3-337.7,246.7z"/>
<path fill="#070707" d="M-188.9,388.1l-12.8-71.9c-0.6-3.5-4.7-4.9-7.4-2.6l-35.9,30.4c-1,0.8-1.6,2.1-1.6,3.5v41.5
	c0,2.5,2,4.5,4.5,4.5h48.7C-190.5,393.4-188.4,390.9-188.9,388.1z"/>
<g>
	<g>
		<path fill="#070707" d="M215.8,241.8l-87.4,25.7c-4.1,1.2-4.7,6.8-1,8.9l87.4,47.7c3.2,1.7,7.2-0.6,7.2-4.3v-73.4
			C222,243.1,218.9,240.8,215.8,241.8z"/>
		<path fill="#070707" d="M6.2,298.3l87.2-25.6c4.1-1.2,4.7-6.8,1-8.9L7.2,216.1C4,214.4,0,216.7,0,220.4v73.3
			C0,296.9,3.1,299.2,6.2,298.3z"/>
		<path fill="#070707" d="M127.1,262.8l91.4-26.9c2-0.6,3.5-2.5,3.5-4.7v-73.6c0-2.7-2.2-4.9-4.9-4.9h-36.6c-1.8,0-3.4,1-4.3,2.6
			l-54.8,100.5C119.4,259.6,123,264,127.1,262.8z"/>
		<path fill="#070707" d="M0,308.8v75.9c0,2.7,2.2,4.9,4.9,4.9h35.2c1.8,0,3.4-1,4.3-2.6l56.1-102.8c2.1-3.8-1.5-8.2-5.6-7
			L3.4,304.1C1.4,304.7,0,306.7,0,308.8z"/>
		<path fill="#070707" d="M118.3,286.2l29.3,99.9c0.6,2,2.5,3.4,4.6,3.4h64.9c2.7,0,4.9-2.2,4.9-4.9v-48.5c0-1.8-1-3.4-2.5-4.3
			l-94.3-51.5C121.4,278.5,117,282.1,118.3,286.2z"/>
		<path fill="#070707" d="M103.7,253.9L75,156.3c-0.6-2-2.5-3.4-4.6-3.4H4.9c-2.7,0-4.9,2.2-4.9,4.9v46.2c0,1.8,1,3.4,2.6,4.3
			l94.2,51.3C100.5,261.6,104.9,258.1,103.7,253.9z"/>
		<path fill="#070707" d="M104.7,286.6l-52.3,95.9c-1.7,3.2,0.6,7.2,4.3,7.2h80.4c3.2,0,5.6-3.1,4.6-6.2l-28.1-95.8
			C112.4,283.4,106.8,282.8,104.7,286.6z"/>
		<path fill="#070707" d="M80.9,159l27.4,93.5c1.2,4.1,6.8,4.7,8.9,1l51.1-93.5c1.7-3.2-0.6-7.2-4.3-7.2H85.5
			C82.3,152.8,79.9,155.9,80.9,159z"/>
	</g>
</g>
<g>
	<text transform="matrix(1 0 0 1 243.9051 306.3586)"><tspan x="0" y="0" font-family="'ITCAvantGardeStd-Bold'" font-size="92">TIHOMIR</tspan><tspan x="-2" y="83" font-family="'ITCAvantGardeStd-Bold'" font-size="92">RACHEV</tspan></text>
	<rect x="243.9" y="152.2" width="137.3" height="68.4"/>
</g>
</svg>
