<?xml version="1.0" encoding="utf-8"?>
<!-- Generator: Adobe Illustrator 18.1.1, SVG Export Plug-In . SVG Version: 6.00 Build 0)  -->
<svg version="1.1" id="layout" xmlns="http://www.w3.org/2000/svg" xmlns:xlink="http://www.w3.org/1999/xlink" x="0px" y="0px"
	 viewBox="0 127.8 640.1 237.5" enable-background="new 0 127.8 640.1 237.5" xml:space="preserve">
<text transform="matrix(1 0 0 1 243.9051 282.046)"><tspan x="0" y="0" font-family="'ITCAvantGardeStd-Bold'" font-size="92">TIHOMIR</tspan><tspan x="-2" y="83" font-family="'ITCAvantGardeStd-Bold'" font-size="92">RACHEV</tspan></text>
<rect x="243.9" y="127.9" width="137.3" height="68.4"/>
<g>
	<path d="M107.8,360.4v-32.8c0-4.1-4.8-6.4-8-3.8L60,356.7c-3.5,2.9-1.5,8.6,3.1,8.6h39.8C105.6,365.3,107.8,363.1,107.8,360.4z"/>
	<path d="M0,267v93.4c0,2.7,2.2,4.9,4.9,4.9h30.6c1.1,0,2.3-0.4,3.1-1.1l67.4-55.9c1.1-0.9,1.7-2.3,1.7-3.8v-0.2
		c0-2-1.3-3.8-3.2-4.5l-98-37.3C3.4,261.2,0,263.6,0,267z"/>
	<path d="M61.1,266.7l-24-134.9c-0.4-2.3-2.4-4-4.8-4H4.9c-2.7,0-4.9,2.2-4.9,4.9v115.1c0,2,1.3,3.8,3.2,4.5l51.4,19.7
		C58,273.5,61.7,270.5,61.1,266.7z"/>
	<path d="M45.5,133.5l13.8,77.6c0.7,3.7,5,5.3,8,2.9l38.8-32.8c1.1-0.9,1.7-2.3,1.7-3.7v-44.8c0-2.7-2.2-4.9-4.9-4.9H50.3
		C47.3,127.8,45,130.6,45.5,133.5z"/>
</g>
<path d="M115,132.7v32.8c0,4.1,4.8,6.4,8,3.8l39.8-32.8c3.5-2.9,1.5-8.6-3.1-8.6h-39.8C117.2,127.8,115,130,115,132.7z"/>
<path d="M222.8,226.1v-93.4c0-2.7-2.2-4.9-4.9-4.9h-30.6c-1.1,0-2.3,0.4-3.1,1.1l-67.4,55.9c-1.1,0.9-1.7,2.3-1.7,3.8v0.2
	c0,2,1.3,3.8,3.2,4.5l98.1,37.2C219.3,231.9,222.8,229.5,222.8,226.1z"/>
<path d="M161.8,226.4l24,134.9c0.4,2.3,2.4,4,4.8,4h27.4c2.7,0,4.9-2.2,4.9-4.9v-115c0-2-1.3-3.8-3.2-4.5l-51.4-19.7
	C164.8,219.7,161.1,222.7,161.8,226.4z"/>
<path d="M177.3,359.6L163.5,282c-0.7-3.7-5-5.3-8-2.9l-38.8,32.8c-1.1,0.9-1.7,2.3-1.7,3.7v44.8c0,2.7,2.2,4.9,4.9,4.9h52.6
	C175.5,365.3,177.8,362.6,177.3,359.6z"/>
</svg>
